<?xml version="1.0" encoding="utf-8"?>
<!-- Generator: Adobe Illustrator 23.0.3, SVG Export Plug-In . SVG Version: 6.00 Build 0)  -->
<svg version="1.1" id="Layer_1" xmlns="http://www.w3.org/2000/svg" xmlns:xlink="http://www.w3.org/1999/xlink" x="0px" y="0px"
	 viewBox="0 0 1200 1200" enable-background="new 0 0 1200 1200" xml:space="preserve">
<g>
	<path fill="#54256C" d="M390.103,94.75h711.868c26.526,0,48.03,21.504,48.03,48.029v723.068c0,27.526-14.05,53.147-37.259,67.946
		l-249.078,158.82c-12.943,8.253-27.974,12.637-43.325,12.637H98.033c-26.526,0-48.029-21.503-48.029-48.029L50,337.101
		c0-27.4,13.922-52.922,36.96-67.755l244.292-157.289C348.801,100.758,369.231,94.75,390.103,94.75z"/>
	<path fill="#CA4A9B" d="M914.904,285.996c2.734,1.463,4.358,4.297,4.351,7.579l-0.582,172.232
		c-0.054,15.97-7.751,30.66-20.596,39.293l-29.427,19.78c-3.317,2.229-6.396,1.03-7.56,0.41c-2.727-1.451-4.358-4.274-4.358-7.548
		l-0.13-171.597c-0.015-16.05,7.69-30.814,20.596-39.488l30.132-20.259C910.653,284.169,913.732,285.371,914.904,285.996z
		 M1007.598,222.825l-31.327,20.259c-13.435,8.682-21.446,23.419-21.431,39.411l0.13,171.597c0,4.515,3.079,6.671,4.396,7.391
		c1.325,0.72,4.802,2.129,8.594-0.329l30.592-19.78c13.366-8.644,21.377-23.304,21.431-39.216l0.605-172.232
		c0.015-4.523-3.056-6.694-4.381-7.418C1014.889,221.783,1011.404,220.362,1007.598,222.825z M1108.004,157.1l-30.132,20.255
		c-12.906,8.678-20.611,23.441-20.596,39.492l0.13,171.593c0,3.278,1.631,6.101,4.358,7.552c1.164,0.613,4.243,1.815,7.56-0.41
		l29.427-19.784c12.845-8.632,20.542-23.319,20.596-39.289l0.574-172.236c0.015-3.282-1.616-6.116-4.343-7.579
		C1114.415,156.07,1111.328,154.856,1108.004,157.1z M907.329,550.328l-30.132,20.259c-12.906,8.674-20.611,23.438-20.596,39.488
		l0.13,171.597c0,3.278,1.631,6.097,4.366,7.552c1.164,0.613,4.236,1.815,7.552-0.41l29.427-19.784
		c12.845-8.632,20.542-23.323,20.596-39.293l0.582-172.232c0.008-3.282-1.616-6.116-4.351-7.579
		C913.724,549.302,910.653,548.095,907.329,550.328z M1108.004,421.03l-30.132,20.255c-12.906,8.678-20.611,23.441-20.596,39.492
		l0.13,171.597c0,3.274,1.631,6.097,4.358,7.548c1.164,0.613,4.243,1.808,7.56-0.41l29.427-19.784
		c12.845-8.632,20.542-23.319,20.596-39.289l0.574-172.236c0.015-3.282-1.616-6.116-4.343-7.579
		C1114.415,419.996,1111.344,418.794,1108.004,421.03z M907.329,814.262l-30.132,20.255c-12.906,8.678-20.611,23.442-20.596,39.492
		l0.13,171.593c0,3.278,1.631,6.097,4.366,7.552c1.164,0.613,4.236,1.808,7.552-0.41l29.427-19.784
		c12.845-8.632,20.542-23.323,20.596-39.293l0.582-172.232c0.008-3.282-1.616-6.116-4.351-7.579
		C913.732,813.236,910.668,812.022,907.329,814.262z M1007.598,750.689l-31.327,20.255c-13.435,8.686-21.446,23.422-21.431,39.415
		l0.13,171.597c0,4.515,3.071,6.671,4.396,7.387c1.325,0.728,4.802,2.122,8.594-0.326l30.592-19.784
		c13.366-8.644,21.377-23.3,21.431-39.212l0.605-172.236c0.015-4.523-3.056-6.694-4.381-7.418
		C1014.889,749.644,1011.397,748.223,1007.598,750.689z M1108.004,684.961l-30.132,20.255
		c-12.906,8.678-20.611,23.442-20.596,39.492l0.13,171.597c0,3.274,1.631,6.097,4.358,7.548c1.164,0.62,4.243,1.811,7.56-0.41
		l29.427-19.78c12.845-8.632,20.542-23.323,20.596-39.293l0.574-172.236c0.015-3.282-1.616-6.112-4.343-7.575
		C1114.415,683.934,1111.328,682.728,1108.004,684.961z M303.74,609.29c0-11.91-9.689-21.599-21.592-21.599H105.6
		C93.689,587.69,84,597.38,84,609.29v169.172c0,11.91,9.689,21.599,21.599,21.599h176.548c11.903,0,21.592-9.689,21.592-21.599
		V609.29z"/>
	<path fill="#C4CFD6" d="M1016.207,486.437c1.325,0.724,4.396,2.895,4.381,7.418l-0.605,172.232
		c-0.054,15.912-8.065,30.572-21.431,39.216l-30.592,19.784c-3.807,2.455-7.276,1.034-8.594,0.326
		c-1.317-0.716-4.396-2.876-4.396-7.391l-0.13-171.597c-0.015-15.993,7.996-30.726,21.431-39.411l31.327-20.255
		C1011.397,484.3,1014.889,485.714,1016.207,486.437z M813.471,609.275c-0.015-11.903-9.704-21.584-21.599-21.584H626.858
		c-11.91,0-21.599,9.689-21.599,21.599v169.172c0,11.91,9.689,21.599,21.599,21.599h165.144c5.775,0,11.198-2.248,15.28-6.331
		s6.327-9.509,6.319-15.28L813.471,609.275z M813.471,349.875c-0.015-11.903-9.704-21.584-21.599-21.584H626.858
		c-11.91,0-21.599,9.689-21.599,21.599v169.142c0,11.91,9.689,21.599,21.599,21.599h165.144c5.775,0,11.198-2.248,15.28-6.331
		c4.082-4.082,6.327-9.509,6.319-15.28L813.471,349.875z M558.2,349.89c0-11.91-9.689-21.599-21.592-21.599H372.399
		c-11.91,0-21.599,9.689-21.599,21.599v169.142c0,11.91,9.689,21.599,21.599,21.599h164.209c11.903,0,21.592-9.689,21.592-21.599
		V349.89z M558.2,609.29c0-11.91-9.689-21.599-21.592-21.599H372.399c-11.91,0-21.599,9.689-21.599,21.599v169.172
		c0,11.91,9.689,21.599,21.599,21.599h164.209c11.903,0,21.592-9.689,21.592-21.599V609.29z M303.74,868.72
		c0-11.91-9.689-21.599-21.592-21.599H105.6C93.689,847.121,84,856.81,84,868.72v180.933c0,11.91,9.689,21.599,21.599,21.599
		h176.548c11.903,0,21.592-9.689,21.592-21.599V868.72z M558.2,868.72c0-11.91-9.689-21.599-21.592-21.599H372.399
		c-11.91,0-21.599,9.689-21.599,21.599v180.933c0,11.91,9.689,21.599,21.599,21.599h164.209c11.903,0,21.592-9.689,21.592-21.599
		V868.72z M303.74,349.89c0-11.91-9.689-21.599-21.592-21.599H105.6C93.689,328.291,84,337.98,84,349.89v169.142
		c0,11.91,9.689,21.599,21.599,21.599h176.548c11.903,0,21.592-9.689,21.592-21.599V349.89z M813.463,868.705
		c-0.008-11.903-9.697-21.584-21.599-21.584H626.858c-11.91,0-21.599,9.689-21.599,21.599v180.933
		c0,11.91,9.689,21.599,21.599,21.599h165.128c5.768,0,11.198-2.248,15.28-6.33c4.075-4.083,6.319-9.513,6.319-15.288
		L813.463,868.705z"/>
	<path fill="#772B8F" d="M119.854,289.075c-2.665,0-3.569-2.083-3.83-2.979c-0.483-1.624-0.253-4.036,1.991-5.496
		c9.161-5.951,19.378-12.638,30.277-19.811c6.61-4.354,14.177-6.664,21.867-6.679l180.064-0.345c0.008,0,0.008,0,0.015,0
		c2.635,0,3.546,2.064,3.814,2.953c0.49,1.624,0.276,4.048-1.953,5.526l-30.3,20.087c-6.656,4.412-14.277,6.744-22.028,6.744
		H119.854z M401.274,221.722c7.751,0,15.372-2.332,22.028-6.744l30.293-20.091c2.229-1.478,2.451-3.899,1.961-5.522
		c-0.268-0.888-1.18-2.957-3.822-2.957h-0.008l-180.064,0.345c-7.69,0.015-15.257,2.325-21.883,6.679
		c-10.892,7.177-21.102,13.863-30.262,19.815c-2.244,1.455-2.474,3.872-1.999,5.499c0.268,0.892,1.172,2.976,3.837,2.976H401.274z
		 M551.712,119.577h-0.008l-180.072,0.345c-7.69,0.015-15.257,2.325-21.867,6.679c-10.899,7.177-21.109,13.86-30.277,19.815
		c-2.244,1.455-2.474,3.868-1.991,5.492c0.26,0.896,1.164,2.979,3.83,2.979h179.919c7.767,0,15.38-2.332,22.028-6.74l30.3-20.091
		c2.229-1.478,2.443-3.902,1.953-5.526C555.258,121.641,554.347,119.577,551.712,119.577z M610.881,253.765
		c-0.008,0-0.008,0-0.015,0l-180.072,0.345c-7.69,0.015-15.257,2.325-21.868,6.679c-10.899,7.177-21.109,13.86-30.277,19.815
		c-2.244,1.455-2.474,3.868-1.991,5.492c0.26,0.896,1.164,2.979,3.83,2.979h179.926c7.759,0,15.372-2.332,22.021-6.74l30.3-20.091
		c2.229-1.482,2.443-3.902,1.953-5.53C614.419,255.825,613.508,253.765,610.881,253.765z M712.375,186.408h-0.008l-180.072,0.345
		c-7.69,0.015-15.258,2.325-21.868,6.679c-10.899,7.177-21.117,13.863-30.277,19.815c-2.244,1.455-2.474,3.872-1.991,5.496
		c0.26,0.896,1.172,2.979,3.83,2.979h179.919c7.751,0,15.372-2.332,22.028-6.744l30.3-20.091c2.229-1.478,2.443-3.899,1.953-5.522
		C715.921,188.473,715.01,186.408,712.375,186.408z M812.345,119.577h-0.008l-180.072,0.345c-7.69,0.015-15.257,2.325-21.867,6.679
		c-10.899,7.177-21.109,13.86-30.277,19.815c-2.244,1.455-2.474,3.868-1.991,5.492c0.26,0.896,1.164,2.979,3.83,2.979h179.926
		c7.759,0,15.372-2.332,22.021-6.74l30.3-20.091c2.229-1.478,2.443-3.902,1.953-5.526
		C815.891,121.641,814.98,119.577,812.345,119.577z M821.046,289.075c7.751,0,15.372-2.332,22.028-6.744l30.293-20.087
		c2.229-1.478,2.451-3.902,1.953-5.526c-0.268-0.892-1.317-2.964-3.822-2.953l-180.072,0.345c-7.69,0.015-15.25,2.325-21.875,6.679
		c-10.892,7.177-21.102,13.86-30.27,19.815c-2.237,1.455-2.474,3.868-1.991,5.492c0.268,0.896,1.172,2.979,3.837,2.979H821.046z
		 M973.008,186.408H973l-180.072,0.345c-7.69,0.015-15.258,2.325-21.867,6.679c-10.899,7.177-21.109,13.863-30.278,19.815
		c-2.244,1.455-2.474,3.872-1.991,5.496c0.26,0.896,1.172,2.979,3.83,2.979h179.926c7.759,0,15.372-2.332,22.021-6.744l30.3-20.091
		c2.229-1.478,2.443-3.899,1.953-5.522C976.554,188.473,975.643,186.408,973.008,186.408z M1022.518,154.886
		c7.759,0,15.38-2.332,22.028-6.74l30.293-20.091c2.229-1.482,2.451-3.902,1.961-5.526c-0.268-0.888-1.18-2.953-3.822-2.953h-0.008
		l-180.064,0.345c-7.69,0.015-15.257,2.325-21.883,6.679c-10.892,7.173-21.102,13.86-30.262,19.811
		c-2.244,1.459-2.474,3.872-1.999,5.496c0.268,0.896,1.172,2.979,3.837,2.979H1022.518z"/>
</g>
</svg>
